<svg xmlns="http://www.w3.org/2000/svg" width="64" height="64" viewBox="0 0 64 64"><path d="M32.001 3.982C16.537 3.982 3.984 16.535 3.984 32s12.553 28.017 28.017 28.017c15.465 0 28.017-12.552 28.017-28.017S47.466 3.982 32 3.982zm0 2.24c6.165 0 11.768 2.13 16.139 5.717l-7.957 7.956a14.662 14.662 0 0 0-8.182-2.465c-3.027 0-5.826.897-8.182 2.465l-7.956-7.956C20.233 8.353 25.837 6.223 32 6.223zM44.328 32a12.29 12.29 0 0 1-12.327 12.327A12.29 12.29 0 0 1 19.674 32a12.29 12.29 0 0 1 12.327-12.327A12.29 12.29 0 0 1 44.328 32zM6.225 32c0-7.285 3.025-13.785 7.844-18.491l7.956 7.956C19.224 24.043 17.43 27.852 17.43 32c0 4.148 1.795 7.957 4.596 10.535l-7.956 7.957C9.25 45.785 6.226 39.285 6.226 32zM32 57.776c-6.164 0-11.768-2.13-16.138-5.717l7.956-7.956A14.662 14.662 0 0 0 32 46.569c3.027 0 5.827-.897 8.182-2.466l7.956 7.956c-4.37 3.587-9.973 5.717-16.138 5.717zm17.93-7.285l-7.956-7.957C44.777 39.845 46.57 36.147 46.57 32c0-4.147-1.794-7.956-4.596-10.535l7.956-7.956c4.82 4.706 7.844 11.206 7.844 18.491s-3.025 13.785-7.844 18.492z"/><path d="M48.138 11.94l.696.696.767-.767-.84-.687-.623.76v-.002zm-7.956 7.956l-.546.818.67.446.57-.57-.696-.696.002.002zm-16.364 0l-.696.696.57.57.67-.446-.546-.818.002-.002zm-7.956-7.956l-.623-.76-.84.687.767.766.696-.695v.002zm-1.792 1.569l.696-.697-.687-.687-.696.679.687.702v.002zm7.956 7.956l.665.723.754-.694-.725-.725-.696.696h.002zm0 21.07l.696.696.725-.725-.753-.694-.666.723h-.002zm-7.956 7.957l-.687.702.696.678.687-.687-.696-.696v.003zm1.792 1.568l-.696-.696-.767.767.84.687.623-.76v.002zm7.956-7.956l.546-.818-.67-.446-.57.57.696.696-.002-.002zm16.364 0l.696-.696-.57-.57-.67.446.546.818-.002.002zm7.956 7.956l.623.76.84-.687-.767-.767-.696.697v-.003zm1.792-1.569l-.696.697.688.687.696-.679-.688-.702v-.002zm-7.956-7.956l-.68-.71-.725.694.709.71.696-.696v.002zm0-21.07l-.696-.696-.725.725.754.694.665-.723h.002zm7.956-7.957l.688-.702-.697-.678-.687.687.696.696v-.002zM32 3C15.992 3 3 15.992 3 32h1.966C4.966 17.077 17.076 4.966 32 4.966V3zM3 32c0 16.008 12.992 29 29 29v-1.967C17.077 59.033 4.966 46.923 4.966 32H3zm29 29c16.008 0 29-12.992 29-29h-1.967c0 14.923-12.11 27.033-27.033 27.033V61zm29-29C61 15.992 48.008 3 32 3v1.966c14.923 0 27.033 12.11 27.033 27.034H61zM32 7.207c5.986-.016 11.275 1.997 15.515 5.493l1.246-1.52C44.261 7.503 38.341 5.258 32 5.24v1.967zm15.442 4.037L39.486 19.2l1.39 1.39 7.956-7.957-1.39-1.39zm-6.717 7.835A16.07 16.07 0 0 0 32 16.447v1.967c2.875-.011 5.4.8 7.636 2.3l1.092-1.635h-.003zM32 16.447a16.046 16.046 0 0 0-8.725 2.632l1.091 1.635c2.234-1.5 4.762-2.311 7.636-2.3v-1.967H32zm-7.486 2.755l-7.956-7.956-1.39 1.39 7.956 7.956 1.39-1.39zm-8.03-6.502C20.725 9.204 26.013 7.19 32 7.207V5.24c-6.341.016-12.26 2.263-16.761 5.94l1.246 1.52zM43.345 32A11.308 11.308 0 0 1 32 43.344v1.966c7.38 0 13.31-5.93 13.31-13.31h-1.966zM32 43.344A11.308 11.308 0 0 1 20.656 32H18.69c0 7.38 5.93 13.31 13.31 13.31v-1.966zM20.656 32A11.308 11.308 0 0 1 32 20.656V18.69c-7.38 0-13.31 5.93-13.31 13.31h1.966zM32 20.656A11.308 11.308 0 0 1 43.344 32h1.966c0-7.38-5.93-13.31-13.31-13.31v1.966zM7.207 32c0-7.004 2.908-13.255 7.548-17.789l-1.375-1.407c-4.995 4.88-8.14 11.628-8.14 19.194h1.967V32zm6.167-17.796l7.956 7.957 1.39-1.39-7.956-7.956-1.39 1.39zm7.987 6.538C18.363 23.5 16.45 27.572 16.45 32h1.967c0-3.864 1.672-7.415 4.277-9.81l-1.33-1.448h-.002zM16.447 32c0 4.43 1.914 8.5 4.912 11.258l1.33-1.448c-2.605-2.397-4.278-5.948-4.278-9.81h-1.966.002zm4.883 9.839l-7.956 7.956 1.39 1.39 7.956-7.956-1.39-1.39zm-6.573 7.95C10.115 45.255 7.209 39.004 7.209 32H5.243c0 7.565 3.144 14.316 8.14 19.194l1.374-1.407v.002zM32 56.793c-5.986.016-11.275-1.997-15.515-5.493l-1.246 1.52c4.5 3.677 10.42 5.922 16.761 5.94v-1.967zm-15.442-4.037l7.956-7.956-1.39-1.39-7.956 7.957 1.39 1.39zm6.717-7.835A16.07 16.07 0 0 0 32 47.553v-1.967c-2.875.011-5.4-.8-7.636-2.3l-1.092 1.635h.003zM32 47.553a16.046 16.046 0 0 0 8.725-2.632l-1.091-1.635c-2.234 1.5-4.762 2.314-7.636 2.3v1.967H32zm7.486-2.755l7.956 7.956 1.39-1.39-7.956-7.956-1.39 1.39zm8.03 6.502c-4.24 3.496-9.528 5.509-15.516 5.493v1.967c6.341-.016 12.26-2.263 16.761-5.94l-1.246-1.52zm3.11-1.505L42.67 41.84l-1.39 1.39 7.956 7.956 1.39-1.39zm-7.972-6.55c2.974-2.858 4.897-6.804 4.897-11.245h-1.967c0 3.853-1.664 7.303-4.293 9.826l1.361 1.418h.002zM47.553 32c0-4.43-1.914-8.5-4.912-11.258l-1.33 1.448c2.605 2.397 4.278 5.948 4.278 9.81h1.966-.002zm-4.883-9.839l7.956-7.957-1.39-1.39-7.956 7.957 1.39 1.39zm6.573-7.95c4.642 4.534 7.548 10.785 7.548 17.789h1.966c0-7.565-3.144-14.316-8.14-19.194l-1.374 1.407v-.002zM56.793 32c0 7.004-2.908 13.255-7.548 17.789l1.375 1.407c4.995-4.88 8.14-11.628 8.14-19.194h-1.967V32z"/></svg>