<svg xmlns="http://www.w3.org/2000/svg" width="64" height="64" viewBox="0 0 64 64"><path d="M56.858 48.194l-7.64-14.164a18.11 18.11 0 0 0 1.681-7.656C50.822 16.192 42.647 8 32.486 8 22.4 8 14.149 16.192 14.149 26.374c0 2.757.611 5.436 1.757 7.733L8.189 48.194c-.306.536-.23 1.148.151 1.685.383.459.994.69 1.528.536l7.64-1.76 2.6 7.35c.228.535.687.995 1.299.995h.076c.535 0 1.07-.306 1.375-.842l6.266-11.714c1.069.154 2.139.306 3.21.306 1.07 0 2.139-.077 3.133-.306l6.417 11.714c.306.459.765.767 1.375.767h.153c.612-.077 1.146-.46 1.3-.996l2.596-7.35 7.64 1.76c.612.155 1.223-.076 1.529-.535.611-.458.611-1.07.382-1.608l-.002-.002zM21.94 51.715l-1.91-5.36c-.23-.766-.994-1.148-1.757-.996l-5.655 1.302 5.195-9.493c2.14 2.91 5.119 5.206 8.558 6.431l-4.433 8.114.002.002zm10.62-10.029c-8.406 0-15.281-6.891-15.281-15.312 0-8.42 6.877-15.312 15.28-15.312 8.406 0 15.281 6.892 15.281 15.312 0 8.421-6.877 15.312-15.28 15.312zm14.286 3.675c-.764-.154-1.528.23-1.756.996l-1.91 5.435-4.433-8.116c3.515-1.302 6.495-3.598 8.71-6.583l5.196 9.57-5.807-1.302z"/></svg>