<svg xmlns="http://www.w3.org/2000/svg" width="64" height="64" viewBox="0 0 64 64"><path d="M63.917 50.402C63.109 47.888 59.01 36 53.454 34.474a5.296 5.296 0 0 0 .472-2.763c1.85-.397 3.243-2.028 3.243-3.976 0-2.247-1.842-4.072-4.106-4.072a4.107 4.107 0 0 0-4.01 3.216 5.699 5.699 0 0 0-.529-.025c-3 0-5.443 2.425-5.443 5.398 0 .696.138 1.366.382 1.98-4.702-.63-8.337-4.622-8.337-9.447a1.666 1.666 0 0 0-3.119-.807 1.667 1.667 0 0 0-3.12.807c0 4.832-3.634 8.824-8.336 9.447a5.337 5.337 0 0 0 .382-1.98c0-2.975-2.446-5.398-5.443-5.398-2.998 0-5.443 2.425-5.443 5.398 0 .8.18 1.56.497 2.238C4.986 36.025.887 47.904.082 50.427a1.65 1.65 0 0 0 1.083 2.085 1.682 1.682 0 0 0 2.103-1.077c1.221-3.798 3.356-8.55 5.426-11.37-1.792 4.816-1.792 11.332-1.792 14.28 0 .912.75 1.656 1.67 1.656.92 0 1.67-.744 1.67-1.657 0-10.368 1.719-16.252 4.84-16.72.13.01.26.016.401.016.14 0 .27-.009.407-.025 3.122.461 4.84 6.352 4.84 16.72 0 .913.75 1.656 1.67 1.656.92 0 1.67-.743 1.67-1.656 0-3.515-.009-12.107-3.047-16.834 5.525-.76 9.949-4.962 10.968-10.352 1.02 5.39 5.452 9.602 10.978 10.352-3.04 4.727-3.048 13.319-3.048 16.834 0 .913.75 1.656 1.67 1.656.92 0 1.67-.743 1.67-1.656 0-10.368 1.718-16.252 4.84-16.72.129.01.27.016.4.016.131 0 .27-.009.4-.016 3.122.468 4.84 6.352 4.84 16.72 0 .913.75 1.656 1.67 1.656.921 0 1.671-.743 1.671-1.656 0-2.94 0-9.447-1.785-14.265 2.061 2.822 4.189 7.556 5.41 11.354a1.681 1.681 0 0 0 2.103 1.077c.904-.29 1.394-1.227 1.109-2.101h-.002v.002zm-48.022-16.14c-.138-.01-.279-.025-.417-.025-.147 0-.285.016-.423.025a2.085 2.085 0 0 1-1.67-2.037c0-1.148.939-2.079 2.096-2.079s2.095.931 2.095 2.079a2.102 2.102 0 0 1-1.679 2.037h-.002zm33.037 0c-.139-.01-.279-.025-.424-.025-.145 0-.285.016-.423.025a2.085 2.085 0 0 1-1.67-2.037c0-1.148.938-2.079 2.096-2.079 1.157 0 2.095.931 2.095 2.079a2.08 2.08 0 0 1-1.67 2.037h-.005zm3.365-6.536a.76.76 0 0 1 1.518 0 .76.76 0 0 1-1.518 0zm-20.299-7.764c1.04 0 1.889-.84 1.889-1.873v-7.216A1.884 1.884 0 0 0 31.998 9c-1.042 0-1.889.84-1.889 1.873v7.216c0 1.031.847 1.873 1.889 1.873zm7.458.984c.216.084.442.12.658.12.789 0 1.532-.485 1.815-1.259l2.537-6.926a1.898 1.898 0 0 0-1.157-2.45c-.996-.363-2.114.148-2.47 1.148L38.3 18.505a1.892 1.892 0 0 0 1.157 2.44h-.002zm-17.232-1.018a1.86 1.86 0 0 0 1.746 1.212c.21 0 .426-.037.633-.108a1.836 1.836 0 0 0 1.113-2.359l-2.443-6.666a1.86 1.86 0 0 0-2.378-1.104 1.835 1.835 0 0 0-1.114 2.359l2.443 6.666z"/></svg>