<svg xmlns="http://www.w3.org/2000/svg" width="64" height="64" viewBox="0 0 64 64"><path d="M62 15.973H44v-3.98A3.992 3.992 0 0 0 40 8H4c-2.208 0-4 1.784-4 3.993V39.95a3.998 3.998 0 0 0 4 3.993h.218A10.305 10.305 0 0 0 4 46.003C4 51.523 8.476 56 14 56c5.523 0 10-4.476 10-9.996 0-.708-.08-1.396-.217-2.06h12.436a9.97 9.97 0 0 0-.22 2.06C36 51.523 40.48 56 46 56s10-4.476 10-9.996a9.97 9.97 0 0 0-.22-2.06H62c1.1 0 2.001-.896 2.001-2V17.97c0-1.1-.9-1.996-2-1.996v-.002zM14 51.951c-3.315 0-5.999-2.664-5.999-5.947 0-3.284 2.684-5.948 6-5.948 3.315 0 6 2.664 6 5.948 0 3.283-2.683 5.947-6 5.947zm24.04-11.947c-.015 0-.024.009-.041.009H21.963C20.139 37.588 17.263 36 13.998 36c-3.268 0-6.14 1.587-7.965 4.012h-.036a2 2 0 0 1-2-1.995V14.043c0-1.104.895-1.995 2-1.995h31.999a2 2 0 0 1 2 1.995v23.973c0 .016-.009.024-.009.041a10.025 10.025 0 0 0-1.953 1.949l.005-.003zM46 51.951c-3.31 0-5.999-2.664-5.999-5.947 0-3.284 2.688-5.948 6-5.948 3.31 0 6 2.664 6 5.948 0 3.283-2.688 5.947-6 5.947zm14-11.938h-6.04C52.14 37.588 49.264 36 46 36a9.86 9.86 0 0 0-2 .205v-4.164h16v7.973-.002zm0-12.02H44v-7.977h16v7.977z"/></svg>