<svg xmlns="http://www.w3.org/2000/svg" width="64" height="64" viewBox="0 0 64 64"><path stroke="#000" stroke-width="3" d="M25.674 20.343l-.053-.054a5.756 5.756 0 0 0 .002-5.709l.052-.053a5.832 5.832 0 0 1 0 5.816zm33.047 27.232a5.828 5.828 0 0 1 0 5.82l-.053-.053a5.748 5.748 0 0 0 0-5.713l.053-.054zm-1.982-2.26l-.053.052-4.002-4.002.025-.025.026-.026 1.501 1.505v-.006l2.503 2.502zM24.672 25.868a137.11 137.11 0 0 0 14.462 14.464l-.052.052A139.074 139.074 0 0 1 24.62 25.92l.052-.052zm20.035 13.513l-.053-.054a5.82 5.82 0 0 1 5.82 0l-.052.052a5.748 5.748 0 0 0-5.715.002zm-21.07-27.065l-4.005-4.002.052-.052 4.005 4.002-.052.052zm-6.214-6.038l-.053.053a5.748 5.748 0 0 0-5.712.001l-.054-.053a5.828 5.828 0 0 1 5.82-.001zM9.345 8.26l.052.053L8.16 9.55l-.052-.052 1.237-1.237zM5.228 20.184a8.687 8.687 0 0 1 .85-8.473l.053.053a8.614 8.614 0 0 0-.842 8.38l-.061.04zm51.51 35.47l-1.237 1.239-.025-.025-.027-.027 1.237-1.238.053.052zM6.846 22.715C16.24 36.578 28.42 48.761 42.287 58.157l-.04.06C28.456 48.85 16.15 36.543 6.784 22.754l.06-.04zm46.441 36.211a8.696 8.696 0 0 1-8.468.85l.042-.063a8.625 8.625 0 0 0 8.373-.84l.053.053z"/></svg>