<svg xmlns="http://www.w3.org/2000/svg" width="64" height="64" viewBox="0 0 64 64"><path d="M7.75 58h47.493c.969 0 1.757-.787 1.757-1.755 0-.969-.788-1.757-1.757-1.757H9.514V8.77A1.758 1.758 0 0 0 6 8.77v47.465c-.01.978.78 1.766 1.748 1.766h.002z"/><path d="M16.91 17.924l5.117-5.112a7.735 7.735 0 0 1 5.51-2.28 7.73 7.73 0 0 1 5.512 2.287l2.321 2.32a11.251 11.251 0 0 0 7.995 3.315c3.025 0 5.86-1.174 8.003-3.316l2.116-2.114v3.665a1.758 1.758 0 0 0 3.514 0V8.767a1.586 1.586 0 0 0-.077-.497c-.019-.06-.035-.12-.053-.18-.025-.06-.06-.113-.084-.172-.026-.043-.044-.094-.078-.137a1.779 1.779 0 0 0-.49-.489c-.043-.025-.084-.043-.127-.068-.06-.034-.112-.069-.171-.094-.06-.025-.12-.034-.18-.052A1.586 1.586 0 0 0 55.24 7h-7.92c-.969 0-1.757.788-1.757 1.756s.788 1.756 1.757 1.756h3.667l-2.116 2.115a7.735 7.735 0 0 1-5.51 2.279 7.752 7.752 0 0 1-5.512-2.28l-2.321-2.32A11.236 11.236 0 0 0 27.54 7.01c-3.018 0-5.86 1.174-8.004 3.316l-5.116 5.113a1.758 1.758 0 0 0 2.486 2.484l.005.002zm-1.243 32.161c.969 0 1.757-.787 1.757-1.756V32.502c0-.968-.788-1.756-1.757-1.756-.969 0-1.757.788-1.757 1.756v15.82a1.76 1.76 0 0 0 1.757 1.766v-.003zm6.153-25.487V48.33a1.758 1.758 0 0 0 3.514 0V24.598c0-.968-.788-1.756-1.757-1.756-.968 0-1.757.779-1.757 1.756zm9.675-1.766a1.76 1.76 0 0 0-1.757 1.756v23.733a1.758 1.758 0 0 0 3.514 0V24.597a1.75 1.75 0 0 0-1.757-1.765zm6.525 9.67v15.82a1.758 1.758 0 0 0 3.514 0v-15.82a1.759 1.759 0 0 0-3.515 0zm7.554 0v15.82a1.758 1.758 0 0 0 3.514 0v-15.82c0-.968-.788-1.756-1.757-1.756-.969 0-1.757.788-1.757 1.756z"/></svg>