<svg xmlns="http://www.w3.org/2000/svg" width="64" height="64" viewBox="0 0 64 64"><path d="M32 5c-3.737 0-7.252.703-10.547 2.11-3.254 1.406-6.107 3.334-8.558 5.785-2.45 2.451-4.38 5.304-5.786 8.558C5.703 24.748 5 28.263 5 32c0 3.737.703 7.252 2.11 10.547 1.406 3.254 3.334 6.107 5.785 8.558 2.451 2.45 5.304 4.38 8.558 5.786C24.748 58.297 28.263 59 32 59c3.737 0 7.252-.703 10.547-2.11 3.254-1.406 6.107-3.334 8.558-5.785 2.45-2.451 4.38-5.304 5.786-8.558C58.297 39.252 59 35.737 59 32c0-3.737-.703-7.252-2.11-10.547-1.406-3.254-3.334-6.107-5.785-8.558-2.451-2.45-5.304-4.38-8.558-5.786C39.252 5.703 35.737 5 32 5zm11.511 28.748l-9.763 9.763c-.281.281-.553.482-.814.603a2.22 2.22 0 0 1-.934.18c-.362 0-.673-.06-.934-.18s-.532-.322-.814-.603c-.482-.482-.723-1.044-.723-1.687s.241-1.226.723-1.748l5.665-5.605H19.705c-.723 0-1.305-.231-1.747-.693-.442-.462-.663-1.055-.663-1.778 0-.723.22-1.316.663-1.778.442-.462 1.024-.693 1.747-.693h16.212l-5.665-5.605c-.482-.522-.723-1.105-.723-1.748 0-.642.241-1.205.723-1.687.523-.523 1.105-.784 1.748-.784s1.225.262 1.748.784l9.763 9.763c.522.523.784 1.105.784 1.748s-.262 1.225-.784 1.748z"/></svg>